<?xml version="1.0" encoding="iso-8859-1"?>
<!-- Uploaded to: SVG Repo, www.svgrepo.com, Generator: SVG Repo Mixer Tools -->
<svg height="64px" width="64px" version="1.1" id="Capa_1" xmlns="http://www.w3.org/2000/svg" xmlns:xlink="http://www.w3.org/1999/xlink" viewBox="0 0 58.399 58.399" xml:space="preserve">
	<title>ICON_TOOLBAR_MEQOLO_VPILOT_EXTENDER</title>
	<g>
		<g>
			<path style="fill:#010002;" d="M54.93,20.579L5.129,14.197c-0.692-0.127-1.191-0.229-1.507-0.294
				c-0.418-0.085-0.53-0.108-0.714-0.108c-0.089,0-0.17,0.03-0.255,0.046c-0.185-0.03-0.36-0.046-0.527-0.046
				c-0.852,0-1.543,0.393-1.896,1.077c-0.647,1.254,0.209,2.709,0.88,3.65l11.746,17.8c1.446,2.034,4.113,3.35,6.794,3.35
				c0.001,0,0.001,0,0.001,0c0.894,0,1.748-0.145,2.537-0.43l3.808-1.374l8.239,6.417c0.274,0.213,0.599,0.317,0.921,0.317
				c0.034,0,0.066-0.009,0.101-0.011c0.071,0.006,0.143,0.013,0.212,0.013c1.15,0,2.122-0.912,2.881-2.692l5.513-12.184
				c0.462,0.041,0.934,0.066,1.422,0.066c2.128,0,4.225-0.41,5.753-1.126l4.73-2.217c2.369-1.109,2.729-2.415,2.612-3.315
				C58.263,22.236,57.585,21.065,54.93,20.579z M21.17,36.42c-0.463,0.167-0.974,0.252-1.52,0.252c-1.714,0-3.462-0.84-4.32-2.045
				L4.17,17.715l26.37,14.143c0.58,0.294,0.82,0.541,0.912,0.662c-0.105,0.11-0.375,0.325-0.986,0.546L21.17,36.42z M31.483,35.889
				c0.165-0.06,0.298-0.127,0.445-0.191l0.525,3.397l-3.121-2.43L31.483,35.889z M35.703,40.482l-1.212-7.849
				c0.029-0.815-0.287-2.281-2.565-3.436l-13.614-7.302l22.354,7.142c0.059,0.022,0.128,0.038,0.188,0.06L35.703,40.482z
				M54.494,23.734l-4.73,2.217c-2.048,0.96-5.807,1.136-8.103,0.258l-22.515-7.192l35.322,4.526c0.106,0.02,0.203,0.039,0.292,0.06
				C54.68,23.645,54.591,23.688,54.494,23.734z"/>
		</g>
	</g>
</svg>